<?xml version="1.0" standalone="no"?>
<!DOCTYPE svg PUBLIC "-//W3C//DTD SVG 1.1//EN" "http://www.w3.org/Graphics/SVG/1.1/DTD/svg11.dtd" >
<svg xmlns="http://www.w3.org/2000/svg">
<metadata>Generated by IcoMoon</metadata>
<defs>
<font id="gs1_icons" horiz-adv-x="1024">
<font-face units-per-em="1024" ascent="960" descent="-64" />
<missing-glyph horiz-adv-x="1024" />
<glyph unicode="&#x20;" horiz-adv-x="512" d="" />
<glyph unicode="&#xe600;" glyph-name="arrow_down_2" d="M787.2 438.4l-243.2-419.2c-6.4-12.8-19.2-19.2-28.8-19.2v0c0 0 0 0 0 0s0 0 0 0v0c-9.6 0-19.2 6.4-28.8 19.2l-246.4 419.2c-16 28.8-3.2 48 32 48h153.6v336c0 32 25.6 73.6 60.8 73.6h57.6c32 0 60.8-38.4 60.8-73.6v-336h153.6c32 3.2 48-16 28.8-48z" />
<glyph unicode="&#xe601;" glyph-name="arrow_down" d="M486.4 201.6l-409.6 409.6c-12.8 16-12.8 38.4 0 54.4l28.8 28.8c16 16 41.6 16 57.6 0l352-352 352 352c16 16 41.6 16 57.6 0l28.8-28.8c16-16 16-41.6 0-57.6l-409.6-406.4c-16-16-41.6-16-57.6 0z" />
<glyph unicode="&#xe602;" glyph-name="arrow_left_2" d="M505.6 176l-419.2 246.4c-12.8 6.4-19.2 19.2-19.2 28.8v0c0 0 0 0 0 0s0 0 0 0v0c0 9.6 6.4 19.2 19.2 28.8l419.2 246.4c28.8 16 48 3.2 48-32v-153.6h336c32 0 73.6-25.6 73.6-60.8v-60.8c0-32-38.4-60.8-73.6-60.8h-336v-153.6c0-32-19.2-44.8-48-28.8z" />
<glyph unicode="&#xe603;" glyph-name="arrow_left" d="M268.8 476.8l406.4 406.4c16 16 41.6 16 57.6 0l28.8-28.8c16-16 16-41.6 0-57.6l-352-352 352-352c16-16 16-41.6 0-57.6l-28.8-28.8c-16-16-41.6-16-57.6 0l-406.4 412.8c-16 16-16 41.6 0 57.6z" />
<glyph unicode="&#xe604;" glyph-name="arrow_right_2" d="M524.8 176l419.2 246.4c12.8 6.4 19.2 19.2 19.2 28.8v0c0 0 0 0 0 0s0 0 0 0v0c0 9.6-6.4 19.2-19.2 28.8l-419.2 246.4c-28.8 16-48 3.2-48-32v-153.6h-336c-32 0-73.6-25.6-73.6-60.8v-60.8c0-32 38.4-60.8 73.6-60.8h336v-153.6c-3.2-32 16-44.8 48-28.8z" />
<glyph unicode="&#xe605;" glyph-name="arrow_right" d="M758.4 476.8l-409.6 406.4c-16 16-41.6 16-57.6 0l-25.6-25.6c-16-16-16-41.6 0-57.6l352-352-352-352c-16-16-16-41.6 0-57.6l28.8-28.8c16-16 41.6-16 57.6 0l409.6 409.6c12.8 16 12.8 41.6-3.2 57.6z" />
<glyph unicode="&#xe606;" glyph-name="arrow_up_2" d="M784 457.6l-246.4 419.2c-6.4 12.8-16 19.2-28.8 19.2v0c0 0 0 0 0 0s0 0 0 0v0c-9.6 0-19.2-6.4-28.8-19.2l-246.4-419.2c-16-28.8-3.2-48 32-48h153.6v-336c0-32 25.6-73.6 60.8-73.6h60.8c32 0 60.8 38.4 60.8 73.6v336h153.6c32-3.2 48 16 28.8 48z" />
<glyph unicode="&#xe607;" glyph-name="arrow_up" d="M483.2 694.4l-409.6-409.6c-16-16-16-41.6 0-57.6l28.8-28.8c16-16 41.6-16 57.6 0l352 352 352-352c16-16 41.6-16 57.6 0l28.8 28.8c16 16 16 41.6 0 57.6l-412.8 409.6c-16 16-41.6 16-54.4 0z" />
<glyph unicode="&#xe608;" glyph-name="backward" d="M931.2 892.8c-12.8 6.4-32 3.2-41.6-9.6l-345.6-368v342.4c0 16-16 28.8-32 35.2-12.8 6.4-32 3.2-44.8-9.6l-384-409.6c-12.8-16-16-38.4 0-51.2l384-409.6c6.4-6.4 16-12.8 25.6-12.8 3.2 0 16 0 19.2 3.2 16 6.4 32 19.2 32 35.2v342.4l342.4-368c6.4-6.4 16-12.8 25.6-12.8 3.2 0 12.8 0 19.2 3.2 16 6.4 28.8 19.2 28.8 35.2v819.2c0 16-12.8 28.8-28.8 35.2z" />
<glyph unicode="&#xe609;" glyph-name="ban_circle" d="M512 0c-246.4 0-448 201.6-448 448s201.6 448 448 448 448-201.6 448-448c0-246.4-201.6-448-448-448zM297.6 156.8c3.2-3.2 6.4-3.2 6.4-6.4 57.6-41.6 128-64 204.8-64 198.4 0 361.6 163.2 361.6 361.6 0 73.6-22.4 144-60.8 201.6-3.2 6.4-6.4 9.6-9.6 12.8l-502.4-505.6zM720 745.6c-3.2 3.2-6.4 3.2-9.6 6.4-57.6 38.4-124.8 60.8-198.4 60.8-198.4-3.2-361.6-166.4-361.6-364.8 0-70.4 19.2-134.4 54.4-188.8 3.2-6.4 9.6-12.8 12.8-19.2l502.4 505.6z" />
<glyph unicode="&#xe60a;" glyph-name="barcode" d="M886.4 796.8h-752c-41.6 0-73.6-32-73.6-73.6v-556.8c0-38.4 35.2-70.4 73.6-70.4h748.8c41.6 0 73.6 32 73.6 73.6v553.6c0 41.6-32 73.6-70.4 73.6zM899.2 169.6c0-6.4-6.4-12.8-12.8-12.8h-752c-6.4 0-12.8 6.4-12.8 12.8v553.6c0 9.6 6.4 12.8 12.8 12.8h748.8c6.4 0 12.8-6.4 12.8-12.8v-553.6zM220.8 275.2h64v345.6h-64v-345.6zM352 275.2h64v345.6h-64v-345.6zM480 275.2h64v345.6h-64v-345.6zM611.2 275.2h64v345.6h-64v-345.6zM739.2 275.2h64v345.6h-64v-345.6z" />
<glyph unicode="&#xe60b;" glyph-name="book" d="M771.2 835.2c9.6-12.8 12.8-25.6 12.8-41.6v-668.8c0-41.6-32-73.6-73.6-73.6h-419.2l-32 64h371.2c41.6 0 92.8 28.8 92.8 70.4v633.6c0 41.6-32 73.6-73.6 73.6h-400c-41.6 0-73.6-32-73.6-73.6v-668.8c0-3.2 0-28.8 0-28.8l54.4-124.8c0 0 89.6 0 92.8 0h435.2c60.8 0 92.8 67.2 89.6 124.8v633.6c3.2 48-51.2 70.4-76.8 80z" />
<glyph unicode="&#xe60c;" glyph-name="bookmark" d="M806.4 892.8h-585.6c-28.8 0-51.2-25.6-51.2-57.6v-777.6c0-32 22.4-60.8 51.2-60.8 0 0 19.2 3.2 25.6 9.6l265.6 265.6 268.8-265.6c6.4-6.4 25.6-9.6 25.6-9.6 28.8 0 51.2 25.6 51.2 60.8v777.6c0 32-22.4 57.6-51.2 57.6z" />
<glyph unicode="&#xe60d;" glyph-name="calculator" d="M800 896h-579.2c-22.4 0-32-6.4-32-32v-832c0-22.4 12.8-32 32-32h576c19.2 0 32 9.6 32 32v832c0 25.6-6.4 32-28.8 32zM355.2 156.8c-28.8 0-51.2 22.4-51.2 51.2s22.4 51.2 51.2 51.2 51.2-22.4 51.2-51.2-25.6-51.2-51.2-51.2zM355.2 316.8c-28.8 0-51.2 22.4-51.2 51.2s22.4 51.2 51.2 51.2 51.2-22.4 51.2-51.2-25.6-51.2-51.2-51.2zM355.2 476.8c-28.8 0-51.2 22.4-51.2 51.2s22.4 51.2 51.2 51.2 51.2-22.4 51.2-51.2-25.6-51.2-51.2-51.2zM515.2 156.8c-28.8 0-51.2 22.4-51.2 51.2s22.4 51.2 51.2 51.2 51.2-22.4 51.2-51.2-25.6-51.2-51.2-51.2zM515.2 316.8c-28.8 0-51.2 22.4-51.2 51.2s22.4 51.2 51.2 51.2 51.2-22.4 51.2-51.2-25.6-51.2-51.2-51.2zM515.2 476.8c-28.8 0-51.2 22.4-51.2 51.2s22.4 51.2 51.2 51.2 51.2-22.4 51.2-51.2-25.6-51.2-51.2-51.2zM675.2 156.8c-28.8 0-51.2 22.4-51.2 51.2s22.4 51.2 51.2 51.2 51.2-22.4 51.2-51.2-25.6-51.2-51.2-51.2zM675.2 316.8c-28.8 0-51.2 22.4-51.2 51.2s22.4 51.2 51.2 51.2 51.2-22.4 51.2-51.2-25.6-51.2-51.2-51.2zM675.2 476.8c-28.8 0-51.2 22.4-51.2 51.2s22.4 51.2 51.2 51.2 51.2-22.4 51.2-51.2-25.6-51.2-51.2-51.2zM764.8 668.8c0-19.2-9.6-28.8-32-28.8h-444.8c-22.4 0-32 9.6-32 32v96c0 25.6 16 32 35.2 32h444.8c22.4 0 32-9.6 32-32v-99.2z" />
<glyph unicode="&#xe60e;" glyph-name="calendar" d="M76.8 44.8c0-41.6 41.6-44.8 41.6-44.8h790.4c41.6 3.2 41.6 44.8 41.6 44.8s0 336 0 576h-873.6v-576zM710.4 531.2c0 12.8 12.8 25.6 25.6 25.6h67.2c12.8 0 25.6-12.8 25.6-25.6v-67.2c0-12.8-12.8-25.6-25.6-25.6h-67.2c-12.8 0-25.6 12.8-25.6 25.6v67.2zM710.4 355.2c0 12.8 12.8 25.6 25.6 25.6h67.2c12.8 0 25.6-12.8 25.6-25.6v-67.2c0-12.8-12.8-25.6-25.6-25.6h-67.2c-12.8 0-25.6 12.8-25.6 25.6v67.2zM710.4 179.2c0 12.8 12.8 25.6 25.6 25.6h67.2c12.8 0 25.6-12.8 25.6-25.6v-67.2c0-12.8-12.8-25.6-25.6-25.6h-67.2c-12.8 0-25.6 12.8-25.6 25.6v67.2zM537.6 531.2c0 12.8 12.8 25.6 25.6 25.6h67.2c12.8 0 25.6-12.8 25.6-25.6v-67.2c0-12.8-12.8-25.6-25.6-25.6h-67.2c-12.8 0-25.6 12.8-25.6 25.6v67.2zM537.6 355.2c0 12.8 12.8 25.6 25.6 25.6h67.2c12.8 0 25.6-12.8 25.6-25.6v-67.2c0-12.8-12.8-25.6-25.6-25.6h-67.2c-12.8 0-25.6 12.8-25.6 25.6v67.2zM537.6 179.2c0 12.8 12.8 25.6 25.6 25.6h67.2c12.8 0 25.6-12.8 25.6-25.6v-67.2c0-12.8-12.8-25.6-25.6-25.6h-67.2c-12.8 0-25.6 12.8-25.6 25.6v67.2zM364.8 531.2c0 12.8 12.8 25.6 25.6 25.6h67.2c12.8 0 25.6-12.8 25.6-25.6v-67.2c0-12.8-12.8-25.6-25.6-25.6h-67.2c-12.8 0-25.6 12.8-25.6 25.6v67.2zM364.8 355.2c0 12.8 12.8 25.6 25.6 25.6h67.2c12.8 0 25.6-12.8 25.6-25.6v-67.2c0-12.8-12.8-25.6-25.6-25.6h-67.2c-12.8 0-25.6 12.8-25.6 25.6v67.2zM364.8 179.2c0 12.8 12.8 25.6 25.6 25.6h67.2c12.8 0 25.6-12.8 25.6-25.6v-67.2c0-12.8-12.8-25.6-25.6-25.6h-67.2c-12.8 0-25.6 12.8-25.6 25.6v67.2zM192 531.2c0 12.8 12.8 25.6 25.6 25.6h67.2c12.8 0 25.6-12.8 25.6-25.6v-67.2c0-12.8-12.8-25.6-25.6-25.6h-67.2c-16 0-25.6 9.6-25.6 25.6v67.2zM192 355.2c0 12.8 12.8 25.6 25.6 25.6h67.2c12.8 0 25.6-12.8 25.6-25.6v-67.2c0-12.8-12.8-25.6-25.6-25.6h-67.2c-16 0-25.6 9.6-25.6 25.6v67.2zM192 179.2c0 12.8 12.8 25.6 25.6 25.6h67.2c12.8 0 25.6-12.8 25.6-25.6v-67.2c0-12.8-12.8-25.6-25.6-25.6h-67.2c-16 0-25.6 9.6-25.6 25.6v67.2zM908.8 832h-67.2v35.2c0 19.2-32 28.8-48 28.8-19.2 0-48-9.6-48-28.8v-35.2h-457.6v35.2c0 19.2-28.8 28.8-48 28.8s-48-9.6-48-28.8v-35.2c0 0-67.2 0-73.6 0-38.4 0-41.6-41.6-41.6-41.6v-102.4h873.6v99.2c3.2 41.6-41.6 44.8-41.6 44.8z" />
<glyph unicode="&#xe60f;" glyph-name="check_file" d="M476.8 310.4l-83.2 80c-9.6 9.6-28.8 9.6-41.6 0l-19.2-19.2c-9.6-9.6-9.6-28.8 0-41.6l121.6-121.6c9.6-9.6 28.8-9.6 41.6 0l220.8 220.8c9.6 9.6 9.6 28.8 0 41.6l-19.2 19.2c-9.6 9.6-28.8 9.6-41.6 0l-179.2-179.2zM608 896h-384c-16 0-32-16-32-32v-832c0-16 16-32 32-32h588.8c16 0 19.2 16 19.2 32v640l-224 224zM768 64h-512v768h288v-192c0 0 0-32 32-32h192v-544z" />
<glyph unicode="&#xe610;" glyph-name="check" d="M313.6 112l-230.4 230.4c-22.4 22.4-22.4 54.4 0 76.8l38.4 38.4c22.4 22.4 54.4 22.4 76.8 0l153.6-150.4 480 480c22.4 22.4 54.4 22.4 76.8 0l38.4-38.4c22.4-22.4 22.4-54.4 0-76.8l-556.8-560c-22.4-19.2-57.6-19.2-76.8 0z" />
<glyph unicode="&#xe611;" glyph-name="circle_arrow_down" d="M512 896c-246.4 0-448-201.6-448-448s201.6-448 448-448 448 201.6 448 448c0 246.4-201.6 448-448 448zM716.8 441.6l-172.8-294.4c-6.4-9.6-12.8-12.8-19.2-12.8v0c0 0 0 0 0 0s0 0 0 0v0c-6.4 0-16 3.2-19.2 12.8l-172.8 294.4c-12.8 22.4-3.2 35.2 22.4 35.2h108.8v236.8c0 22.4 19.2 51.2 41.6 51.2h41.6c22.4 0 41.6-28.8 41.6-51.2v-236.8h108.8c22.4 0 32-12.8 19.2-35.2z" />
<glyph unicode="&#xe612;" glyph-name="circle_arrow_left" d="M515.2 896c-246.4 0-448-201.6-448-448s201.6-448 448-448c246.4 0 448 201.6 448 448s-201.6 448-448 448zM822.4 425.6c0-22.4-28.8-41.6-51.2-41.6h-236.8v-108.8c0-25.6-12.8-35.2-35.2-22.4l-294.4 172.8c-6.4 6.4-12.8 16-12.8 22.4v0c0 0 0 0 0 0s0 0 0 0v0c0 6.4 3.2 16 12.8 19.2l294.4 172.8c22.4 12.8 35.2 3.2 35.2-22.4v-105.6h236.8c22.4 0 51.2-19.2 51.2-41.6v-44.8z" />
<glyph unicode="&#xe613;" glyph-name="circle_arrow_right" d="M67.2 448c0-246.4 201.6-448 448-448s448 201.6 448 448-201.6 448-448 448c-249.6 0-448-201.6-448-448zM204.8 470.4c0 22.4 28.8 41.6 51.2 41.6h236.8v108.8c0 25.6 12.8 35.2 35.2 22.4l294.4-172.8c9.6-6.4 12.8-12.8 12.8-19.2v0c0 0 0 0 0 0s0 0 0 0v0c0-6.4-3.2-16-12.8-19.2l-297.6-176c-22.4-12.8-35.2-3.2-35.2 22.4v105.6h-233.6c-22.4 0-51.2 19.2-51.2 41.6v44.8z" />
<glyph unicode="&#xe614;" glyph-name="circle_arrow_up" d="M508.8 896c-246.4 0-448-201.6-448-448s201.6-448 448-448 448 201.6 448 448c0 246.4-198.4 448-448 448zM681.6 432h-108.8v-236.8c0-22.4-19.2-51.2-41.6-51.2h-41.6c-22.4 0-41.6 28.8-41.6 51.2v236.8h-108.8c-25.6 0-35.2 12.8-22.4 35.2l172.8 294.4c6.4 9.6 12.8 12.8 19.2 12.8v0c0 0 0 0 0 0s0 0 0 0v0c6.4 0 16-3.2 19.2-12.8l172.8-294.4c16-19.2 6.4-35.2-19.2-35.2z" />
<glyph unicode="&#xe615;" glyph-name="clock" d="M508.8 896c-246.4 0-448-201.6-448-448s201.6-448 448-448 448 201.6 448 448-198.4 448-448 448zM732.8 400c0-12.8-12.8-25.6-25.6-25.6h-211.2c-12.8 0-25.6 12.8-25.6 25.6v336c0 12.8 12.8 25.6 25.6 25.6h25.6c12.8 0 25.6-12.8 25.6-25.6v-284.8h160c12.8 0 25.6-12.8 25.6-25.6v-25.6z" />
<glyph unicode="&#xe616;" glyph-name="close" d="M844.8 745.6l-38.4 38.4c-22.4 22.4-54.4 22.4-76.8 0l-220.8-220.8-217.6 220.8c-22.4 22.4-54.4 22.4-76.8 0l-41.6-38.4c-22.4-22.4-22.4-54.4 0-76.8l220.8-220.8-220.8-220.8c-22.4-22.4-22.4-54.4 0-76.8l38.4-38.4c22.4-22.4 54.4-19.2 76.8 0l220.8 220.8 220.8-220.8c22.4-22.4 54.4-22.4 76.8 0l38.4 38.4c22.4 22.4 22.4 54.4 0 76.8l-220.8 220.8 220.8 220.8c22.4 19.2 22.4 54.4 0 76.8z" />
<glyph unicode="&#xe617;" glyph-name="cloud_download" d="M694.4 204.8h-118.4v220.8c0 9.6-6.4 16-16 16h-118.4c-9.6 0-16-6.4-16-16v-224h-118.4c-6.4 0-12.8-3.2-12.8-9.6-3.2-6.4 0-12.8 6.4-16l188.8-144c3.2-3.2 6.4-3.2 9.6-3.2s6.4 0 9.6 3.2l195.2 144c6.4 3.2 6.4 9.6 6.4 16-6.4 9.6-9.6 12.8-16 12.8zM739.2 748.8c-6.4 0-9.6 0-16 0s-12.8 3.2-19.2 3.2v3.2c-3.2 3.2-6.4 9.6-9.6 12.8-51.2 60.8-124.8 96-201.6 96-118.4 0-220.8-83.2-252.8-201.6l-3.2-12.8c-92.8-3.2-172.8-92.8-172.8-192 0-102.4 83.2-192 179.2-192h108.8c9.6 0 16 6.4 16 16v220.8h265.6v-236.8h108.8c128 0 220.8 131.2 220.8 249.6 0 124.8-105.6 233.6-224 233.6z" />
<glyph unicode="&#xe618;" glyph-name="cloud_upload" d="M508.8 422.4c-6.4 3.2-12.8 3.2-19.2 0l-195.2-144c-6.4-3.2-6.4-9.6-6.4-16 3.2-6.4 6.4-9.6 12.8-9.6h118.4v-192c0-9.6 6.4-16 16-16h118.4c9.6 0 16 6.4 16 16v192h118.4c6.4 0 12.8 3.2 12.8 9.6 3.2 6.4 0 12.8-6.4 16l-185.6 144zM736 736c-6.4 0-9.6 0-16 0s-12.8 3.2-19.2 3.2c0 0 0 0 0 0l-3.2 3.2c-3.2 3.2-6.4 9.6-9.6 12.8-51.2 60.8-124.8 96-201.6 96-118.4 0-220.8-83.2-252.8-201.6l-3.2-12.8c-92.8-3.2-172.8-92.8-172.8-192 0-73.6 44.8-144 108.8-176 3.2 0 3.2 0 6.4 0s6.4 0 9.6 3.2l313.6 230.4 300.8-227.2c3.2-3.2 9.6-3.2 16 0 80 38.4 140.8 137.6 140.8 230.4 3.2 121.6-99.2 230.4-217.6 230.4z" />
<glyph unicode="&#xe619;" glyph-name="cog" d="M566.4 896h-115.2l-22.4-115.2c-32-9.6-64-22.4-92.8-41.6l-92.8 64-83.2-83.2 60.8-96c-19.2-28.8-32-64-38.4-96l-108.8-22.4v-118.4l108.8-22.4c9.6-35.2 22.4-67.2 41.6-96l-60.8-96 83.2-86.4 99.2 67.2c28.8-16 57.6-28.8 89.6-35.2l22.4-115.2h118.4l22.4 115.2c32 6.4 64 22.4 92.8 38.4l92.8-64 83.2 83.2-57.6 89.6c19.2 32 35.2 67.2 44.8 105.6l99.2 19.2v121.6l-99.2 22.4c-9.6 38.4-25.6 73.6-44.8 105.6l57.6 86.4-83.2 83.2-89.6-60.8c-28.8 16-64 28.8-99.2 38.4l-28.8 108.8zM697.6 448c0-99.2-83.2-182.4-182.4-179.2-99.2 0-182.4 80-179.2 182.4 0 99.2 80 182.4 182.4 179.2 99.2 0 179.2-80 179.2-182.4z" />
<glyph unicode="&#xe61a;" glyph-name="comment" d="M876.8 857.6h-732.8c-44.8 0-80-35.2-80-80v-473.6c0-44.8 35.2-80 80-80h86.4v-144c0-22.4 16-38.4 35.2-38.4v0c6.4 0 12.8 0 16 6.4l179.2 176h416c44.8 0 80 35.2 80 80v473.6c0 44.8-35.2 80-80 80z" />
<glyph unicode="&#xe61b;" glyph-name="credit_card" d="M64 675.2v64c0 0 3.2 41.6 41.6 41.6 6.4 0 809.6 0 809.6 0s44.8 0 44.8-44.8c0-6.4 0-28.8 0-64h-896zM64 624v-505.6c0-41.6 41.6-44.8 41.6-44.8h809.6c41.6 3.2 44.8 44.8 44.8 44.8s0 272 0 508.8h-896zM438.4 137.6h-288c-9.6 0-16 6.4-16 16v115.2c0 9.6 6.4 16 16 16h288c9.6 0 16-6.4 16-16v-115.2c-3.2-9.6-9.6-16-16-16z" />
<glyph unicode="&#xe61c;" glyph-name="dashboard" d="M515.2 0c-246.4 0-448 201.6-448 448s201.6 448 448 448c246.4 0 448-201.6 448-448s-201.6-448-448-448zM515.2 809.6c-198.4 0-361.6-163.2-361.6-361.6s163.2-361.6 361.6-361.6c198.4 0 361.6 163.2 361.6 361.6s-163.2 361.6-361.6 361.6zM569.6 473.6c12.8-12.8 19.2-32 19.2-51.2 0-41.6-35.2-76.8-76.8-76.8s-76.8 35.2-76.8 76.8 35.2 76.8 76.8 76.8c3.2 0 3.2 0 6.4 0v0l76.8 108.8c3.2 6.4 12.8 6.4 19.2 3.2s9.6-9.6 6.4-19.2l-51.2-118.4zM281.6 457.6c0 25.6-19.2 44.8-44.8 44.8s-44.8-19.2-44.8-44.8c0-22.4 22.4-41.6 44.8-41.6 25.6 0 44.8 19.2 44.8 41.6zM416 684.8c0 25.6-19.2 44.8-44.8 44.8s-44.8-19.2-44.8-44.8c0-25.6 19.2-44.8 44.8-44.8s44.8 19.2 44.8 44.8zM700.8 684.8c0 25.6-19.2 44.8-44.8 44.8s-44.8-19.2-44.8-44.8c0-25.6 19.2-44.8 44.8-44.8s44.8 19.2 44.8 44.8zM828.8 457.6c0 25.6-19.2 44.8-44.8 44.8s-44.8-19.2-44.8-44.8c0-25.6 19.2-44.8 44.8-44.8 25.6 3.2 44.8 22.4 44.8 44.8z" />
<glyph unicode="&#xe61d;" glyph-name="download" d="M483.2 204.8c16-16 44.8-16 60.8 0l368 368c16 16 16 44.8 0 60.8l-28.8 28.8c-16 16-44.8 16-60.8 0l-310.4-307.2-304 307.2c-16 16-44.8 16-60.8 0l-28.8-28.8c-16-16-16-44.8 0-60.8l364.8-368zM480 508.8h64c16 0 28.8 12.8 28.8 28.8v329.6c0 16-12.8 28.8-28.8 28.8h-64c-16 0-28.8-12.8-28.8-28.8v-332.8c3.2-12.8 16-25.6 28.8-25.6zM883.2 118.4h-739.2c-22.4 0-41.6-19.2-41.6-41.6v-38.4c0-22.4 19.2-41.6 41.6-41.6h739.2c22.4 0 41.6 19.2 41.6 41.6v38.4c-3.2 25.6-19.2 41.6-41.6 41.6z" />
<glyph unicode="&#xe61e;" glyph-name="earphone" d="M332.8 886.4l112-156.8c6.4-6.4 3.2-19.2-3.2-25.6l-73.6-108.8 259.2-364.8 99.2 70.4c6.4 6.4 19.2 3.2 25.6-3.2l112-156.8c3.2-3.2 3.2-9.6 3.2-16s-6.4-9.6-9.6-12.8l-176-112c-6.4-3.2-9.6-3.2-16 0s-163.2 99.2-307.2 300.8c-86.4 121.6-147.2 256-185.6 400 0 6.4 0 12.8 3.2 16l128 172.8c3.2 3.2 9.6 6.4 16 6.4 3.2 0 9.6-3.2 12.8-9.6z" />
<glyph unicode="&#xe61f;" glyph-name="envelope" d="M956.8 688v-473.6c0-44.8-35.2-80-80-80h-732.8c-44.8 0-80 35.2-80 80v473.6c-3.2 44.8 35.2 80 80 80h732.8c44.8 0 80-35.2 80-80zM531.2 332.8l352 320c12.8 12.8 12.8 32 3.2 44.8-12.8 12.8-32 12.8-44.8 3.2l-329.6-300.8-332.8 297.6c-12.8 12.8-32 9.6-44.8-3.2s-9.6-32 3.2-44.8l352-320c6.4-6.4 12.8-9.6 22.4-9.6 6.4 3.2 12.8 6.4 19.2 12.8zM179.2 204.8l160 160c12.8 12.8 12.8 32 0 44.8s-32 12.8-44.8 0l-160-160c-12.8-12.8-12.8-32 0-44.8 6.4-6.4 16-9.6 22.4-9.6s16 3.2 22.4 9.6zM883.2 204.8c12.8 12.8 12.8 32 0 44.8l-160 160c-12.8 12.8-32 12.8-44.8 0s-12.8-32 0-44.8l160-160c6.4-6.4 16-9.6 22.4-9.6s16 3.2 22.4 9.6z" />
<glyph unicode="&#xe620;" glyph-name="excel_file" d="M608 896h-384c-16 0-32-16-32-32v-832c0-16 16-32 32-32h588.8c16 0 19.2 16 19.2 32v640l-224 224zM768 64h-512v768h288v-192c0 0 0-32 32-32h192v-544zM508.8 432h-28.8v-134.4h96v25.6h-67.2v108.8zM457.6 432h-32l-28.8-44.8-28.8 44.8h-35.2l44.8-67.2-48-67.2h32l28.8 44.8 28.8-44.8h35.2l-48 67.2 51.2 67.2zM646.4 323.2c-16 0-28.8 6.4-41.6 16l-16-22.4c16-16 35.2-22.4 57.6-22.4 28.8 0 48 16 48 41.6v0c0 22.4-16 32-41.6 41.6-22.4 6.4-28.8 9.6-28.8 19.2v0c0 6.4 6.4 12.8 16 12.8 12.8 0 22.4-6.4 35.2-12.8l16 22.4c-12.8 9.6-28.8 16-51.2 16-28.8 0-48-16-48-41.6v0c0-25.6 16-35.2 44.8-41.6 22.4-6.4 25.6-9.6 25.6-16v0c3.2-9.6-3.2-12.8-16-12.8z" />
<glyph unicode="&#xe621;" glyph-name="exclamation_sign" d="M512 0c246.4 0 448 201.6 448 448s-201.6 448-448 448-448-201.6-448-448c0-246.4 201.6-448 448-448zM451.2 752h124.8v-406.4h-124.8v406.4zM512 291.2c38.4 0 70.4-32 70.4-73.6s-32-73.6-70.4-73.6c-38.4 0-70.4 32-70.4 73.6s32 73.6 70.4 73.6z" />
<glyph unicode="&#xe622;" glyph-name="expand" d="M726.4 572.8l-89.6 89.6 112 112-92.8 92.8c-3.2 3.2-6.4 12.8-3.2 16 3.2 9.6 9.6 12.8 16 12.8h275.2c9.6 0 16-6.4 16-16v-275.2c0-6.4-3.2-12.8-9.6-16s-12.8 0-16 3.2l-92.8 92.8-115.2-112zM841.6 211.2l92.8 92.8c3.2 3.2 12.8 6.4 16 3.2 6.4-3.2 9.6-9.6 9.6-16v-275.2c0-9.6-6.4-16-16-16h-275.2c-6.4 0-12.8 3.2-16 9.6s0 12.8 3.2 16l92.8 92.8-112 112 89.6 89.6 115.2-108.8zM185.6 684.8l-92.8-92.8c-3.2-3.2-12.8-6.4-16-3.2-9.6 3.2-12.8 9.6-12.8 16v275.2c0 9.6 9.6 16 16 16h275.2c6.4 0 12.8-3.2 16-9.6s0-12.8-3.2-16l-92.8-96 112-112-89.6-89.6-112 112zM297.6 323.2l89.6-89.6-112-112 92.8-92.8c3.2-3.2 6.4-12.8 3.2-16-3.2-6.4-9.6-9.6-16-9.6h-275.2c-6.4-3.2-16 3.2-16 12.8v275.2c0 6.4 3.2 12.8 9.6 16s12.8 0 16-3.2l92.8-92.8 115.2 112z" />
<glyph unicode="&#xe623;" glyph-name="facebook" d="M963.2 448c0 246.4-201.6 448-448 448s-448-201.6-448-448c0-246.4 201.6-448 448-448 0 0 3.2 0 3.2 0v300.8h-102.4v118.4h102.4v86.4c0 102.4 60.8 156.8 153.6 156.8 44.8 0 80-3.2 92.8-3.2v-105.6h-64c-48 0-57.6-22.4-57.6-57.6v-76.8h118.4l-16-118.4h-105.6v-281.6c185.6 54.4 323.2 227.2 323.2 428.8z" />
<glyph unicode="&#xe624;" glyph-name="fast_backward" d="M934.4 857.6c-12.8 6.4-28.8 3.2-38.4-9.6l-320-339.2v316.8c0 12.8-16 25.6-28.8 32s-28.8 3.2-38.4-9.6l-316.8-339.2c0 163.2 0 291.2 0 291.2 0 96-128 96-128 0 0-224 0-480 0-704 0-96 128-96 128 0 0 64 0 182.4 0 288l313.6-339.2c6.4-6.4 12.8-9.6 22.4-9.6 3.2 0 16 0 19.2 3.2 12.8 6.4 28.8 19.2 28.8 32v313.6l316.8-339.2c6.4-6.4 16-9.6 25.6-9.6 3.2 0 12.8 0 16 3.2 12.8 6.4 25.6 19.2 25.6 32v755.2c0 16-12.8 28.8-25.6 32z" />
<glyph unicode="&#xe625;" glyph-name="fast_forward" d="M832 800c0 0 0-131.2 0-291.2l-313.6 336c-9.6 9.6-28.8 12.8-41.6 9.6-12.8-6.4-28.8-19.2-28.8-32v-313.6l-313.6 336c-9.6 9.6-28.8 12.8-41.6 9.6-12.8-6.4-28.8-19.2-28.8-32v-748.8c0-12.8 19.2-25.6 32-32 3.2 0 16-3.2 19.2-3.2 9.6 0 16 3.2 22.4 9.6l310.4 336v-310.4c0-12.8 16-25.6 32-32 3.2 0 16-3.2 19.2-3.2 9.6 0 16 3.2 22.4 9.6l310.4 336c0-105.6 0-192 0-288s128-96 128 0c0 224 0 480 0 704 0 96-128 96-128 0z" />
<glyph unicode="&#xe626;" glyph-name="file" d="M576 608h192v-544h-512v768h288v-192c0 0 0-32 32-32zM608 896h-384c-16 0-32-16-32-32v-832c0-16 16-32 32-32h588.8c16 0 19.2 16 19.2 32v640l-224 224z" />
<glyph unicode="&#xe627;" glyph-name="flag" d="M227.2 25.6c0-16-16-28.8-38.4-28.8h-19.2c-22.4 0-38.4 12.8-38.4 28.8v841.6c0 16 16 28.8 38.4 28.8h22.4c22.4 0 38.4-12.8 38.4-28.8v-841.6zM899.2 784c0 35.2-28.8 44.8-67.2 32-233.6-76.8-256 140.8-496 64-38.4-12.8-67.2-60.8-67.2-96 0-121.6 0-182.4 0-304 0-35.2 28.8-44.8 67.2-32 236.8 76.8 259.2-140.8 496-64 35.2 12.8 67.2 60.8 67.2 96 0 121.6 0 182.4 0 304z" />
<glyph unicode="&#xe628;" glyph-name="flickr" d="M512 896c-246.4 0-448-198.4-448-448s201.6-448 448-448 448 201.6 448 448-198.4 448-448 448zM342.4 320c-70.4 0-128 57.6-128 128s57.6 128 128 128c70.4 0 128-57.6 128-128s-57.6-128-128-128zM681.6 320c-70.4 0-128 57.6-128 128s57.6 128 128 128c70.4 0 128-57.6 128-128 3.2-70.4-54.4-128-128-128z" />
<glyph unicode="&#xe629;" glyph-name="folder_close" d="M64 108.8c0-41.6 41.6-44.8 41.6-44.8h796.8c41.6 3.2 41.6 44.8 41.6 44.8s0 268.8 0 499.2h-880v-499.2zM902.4 768h-393.6c0 0 0 35.2 0 38.4 0 22.4-16 25.6-16 25.6h-310.4c-25.6 0-25.6-25.6-25.6-25.6v-38.4h-51.2c-41.6 0-44.8-41.6-44.8-41.6v-54.4h896v54.4c0 35.2-54.4 41.6-54.4 41.6z" />
<glyph unicode="&#xe62a;" glyph-name="folder_open" d="M192 601.6l-121.6-496c-9.6-35.2 25.6-41.6 25.6-41.6h697.6c38.4 3.2 48 38.4 48 38.4s64 294.4 118.4 499.2h-768zM870.4 668.8v54.4c0 35.2-48 44.8-48 44.8s-243.2 0-307.2 0c0 0 0 25.6 0 32s0 6.4 0 6.4c0 22.4-16 25.6-16 25.6s-310.4 0-313.6 0c-25.6 0-25.6-28.8-25.6-28.8v-38.4h-51.2c-35.2 0-44.8-41.6-44.8-41.6v-336l76.8 281.6h729.6z" />
<glyph unicode="&#xe62b;" glyph-name="forward" d="M947.2 473.6l-387.2 409.6c-9.6 12.8-32 16-48 9.6s-32-19.2-32-35.2v-342.4l-342.4 368c-12.8 12.8-28.8 16-44.8 9.6-12.8-6.4-28.8-19.2-28.8-35.2v-819.2c0-16 16-28.8 32-35.2 3.2-3.2 12.8-3.2 19.2-3.2 9.6 0 16 3.2 25.6 12.8l339.2 368v-342.4c0-16 19.2-28.8 32-35.2 3.2-3.2 16-3.2 22.4-3.2 9.6 0 19.2 3.2 28.8 12.8l384 409.6c12.8 12.8 12.8 35.2 0 51.2z" />
<glyph unicode="&#xe62c;" glyph-name="globe" d="M512 896c-246.4 0-448-201.6-448-448s201.6-448 448-448 448 201.6 448 448-201.6 448-448 448zM835.2 601.6h-96c-12.8 57.6-32 112-60.8 163.2 70.4-38.4 124.8-96 156.8-163.2zM860.8 374.4h-108.8c3.2 48 6.4 96 0 147.2h108.8c12.8-48 12.8-99.2 0-147.2zM470.4 800v-198.4h-105.6c22.4 76.8 54.4 147.2 105.6 198.4zM352 521.6h118.4v-147.2h-118.4c-3.2 44.8-6.4 96 0 147.2zM470.4 294.4v-198.4c-51.2 51.2-86.4 121.6-105.6 198.4h105.6zM553.6 92.8v198.4h105.6c-19.2-76.8-54.4-147.2-105.6-198.4zM672 374.4h-121.6v147.2h121.6c6.4-48 6.4-99.2 0-147.2zM553.6 601.6v198.4c51.2-51.2 86.4-121.6 105.6-201.6h-105.6zM345.6 764.8c-28.8-48-48-105.6-60.8-163.2h-96c32 70.4 86.4 124.8 156.8 163.2zM163.2 521.6h108.8c-3.2-48-6.4-96 0-147.2h-108.8c-12.8 48-12.8 99.2 0 147.2zM188.8 294.4h96c12.8-57.6 32-112 57.6-160-67.2 35.2-118.4 89.6-153.6 160zM681.6 134.4c25.6 48 44.8 102.4 57.6 160h92.8c-28.8-70.4-83.2-124.8-150.4-160z" />
<glyph unicode="&#xe62d;" glyph-name="google_plus" d="M512 896c-246.4 0-448-201.6-448-448s201.6-448 448-448c246.4 0 448 201.6 448 448s-201.6 448-448 448zM406.4 243.2c-112 0-201.6 89.6-201.6 201.6s89.6 201.6 201.6 201.6c54.4 0 99.2-19.2 134.4-54.4l-54.4-54.4c-16 16-41.6 32-80 32-70.4 0-124.8-57.6-124.8-128s57.6-128 124.8-128c80 0 108.8 57.6 115.2 86.4h-115.2v70.4h192c3.2-9.6 3.2-19.2 3.2-32-3.2-112-80-195.2-195.2-195.2zM780.8 416v-57.6h-57.6v57.6h-57.6v57.6h57.6v57.6h57.6v-57.6h57.6v-57.6h-57.6z" />
<glyph unicode="&#xe62e;" glyph-name="heart" d="M496 19.2c-128 134.4-256 268.8-387.2 403.2v0c-102.4 105.6-102.4 284.8 0 393.6 102.4 105.6 272 105.6 374.4 0 9.6-9.6 19.2-19.2 28.8-28.8v0c9.6 9.6 19.2 19.2 28.8 28.8v0c102.4 105.6 272 105.6 374.4 0s102.4-284.8 0-393.6c-128-134.4-259.2-268.8-387.2-406.4-6.4-6.4-9.6-12.8-16-16l-16 19.2z" />
<glyph unicode="&#xe62f;" glyph-name="help" d="M515.2 896c-246.4 0-448-201.6-448-448s201.6-448 448-448c246.4 0 448 201.6 448 448s-201.6 448-448 448zM515.2 144c-35.2 0-67.2 28.8-67.2 64s28.8 64 67.2 64c35.2 0 67.2-28.8 67.2-64s-32-64-67.2-64zM608 438.4c-32-28.8-44.8-38.4-44.8-83.2v-32h-99.2v44.8c0 51.2 9.6 64 44.8 96l64 64c12.8 12.8 22.4 32 22.4 54.4 0 44.8-32 73.6-73.6 73.6-48 0-80-35.2-83.2-83.2l-105.6 9.6c12.8 105.6 89.6 169.6 195.2 169.6 99.2 0 176-57.6 176-163.2-3.2-70.4-48-105.6-96-150.4z" />
<glyph unicode="&#xe630;" glyph-name="home" d="M528 892.8c-9.6 6.4-22.4 6.4-32 0l-393.6-348.8v-515.2c0-16 12.8-28.8 28.8-28.8h284.8v259.2c0 6.4 6.4 9.6 9.6 9.6h172.8c6.4 0 9.6-6.4 9.6-9.6v-259.2h281.6c16 0 28.8 12.8 28.8 28.8v515.2l-390.4 348.8z" />
<glyph unicode="&#xe631;" glyph-name="inbox" d="M812.8 854.4c0 22.4-19.2 38.4-38.4 38.4h-528c-19.2 3.2-38.4-16-38.4-38.4l-86.4-755.2v-60.8c0-22.4 19.2-38.4 38.4-38.4h697.6c22.4 0 38.4 19.2 38.4 38.4v60.8l-83.2 755.2zM288 816h444.8l70.4-579.2h-153.6c-3.2 0-6.4 0-6.4 0-16-3.2-25.6-16-25.6-32v-12.8c0-22.4-12.8-38.4-28.8-38.4h-163.2c-16 0-28.8 16-28.8 38.4v9.6c0 0 0 0 0 0 0 16-9.6 28.8-25.6 32-3.2 0-6.4 0-6.4 0h-150.4l73.6 582.4z" />
<glyph unicode="&#xe632;" glyph-name="info_sign" d="M515.2 896c-246.4 0-448-201.6-448-448s201.6-448 448-448c246.4 0 448 201.6 448 448 0 249.6-201.6 448-448 448zM576 144h-124.8v406.4h124.8v-406.4zM515.2 608c-38.4 0-70.4 32-70.4 73.6s32 73.6 70.4 73.6c38.4 0 70.4-32 70.4-73.6s-32-73.6-70.4-73.6z" />
<glyph unicode="&#xe633;" glyph-name="instagram" d="M617.6 537.6h54.4c12.8 0 22.4 9.6 22.4 22.4v51.2c0 12.8-9.6 22.4-22.4 22.4h-54.4c-12.8 0-22.4-9.6-22.4-22.4v-51.2c0-12.8 9.6-22.4 22.4-22.4zM508.8 358.4c51.2 0 92.8 41.6 92.8 92.8s-41.6 92.8-92.8 92.8-92.8-44.8-92.8-92.8c0-51.2 41.6-92.8 92.8-92.8zM508.8 896c-246.4 0-448-201.6-448-448s201.6-448 448-448 448 201.6 448 448-198.4 448-448 448zM745.6 275.2c0-32-25.6-60.8-60.8-60.8h-348.8c-32 0-60.8 25.6-60.8 60.8v348.8c0 32 25.6 60.8 60.8 60.8h348.8c32 0 60.8-25.6 60.8-60.8v-348.8zM656 444.8c0-76.8-64-140.8-147.2-140.8s-147.2 64-147.2 140.8c0 12.8 3.2 28.8 6.4 41.6h-41.6v-198.4c0-9.6 9.6-19.2 19.2-19.2h326.4c9.6 0 19.2 9.6 19.2 19.2v198.4h-41.6c3.2-12.8 6.4-28.8 6.4-41.6z" />
<glyph unicode="&#xe634;" glyph-name="issuu" d="M496 464c-28.8-28.8-28.8-70.4 0-99.2s70.4-28.8 99.2 0c28.8 25.6 28.8 70.4 0 99.2s-73.6 28.8-99.2 0zM409.6 550.4c-73.6-73.6-73.6-192 0-262.4 73.6-73.6 192-73.6 262.4 0s73.6 192 0 262.4c-70.4 73.6-188.8 73.6-262.4 0zM640 320c-54.4-54.4-140.8-54.4-192 0-54.4 54.4-54.4 140.8 0 192s140.8 54.4 192 0c54.4-51.2 54.4-140.8 0-192zM512 896c-246.4 0-448-201.6-448-448s201.6-448 448-448c246.4 0 448 201.6 448 448s-201.6 448-448 448zM732.8 227.2c-102.4-102.4-272-102.4-377.6 0-51.2 51.2-76.8 115.2-76.8 182.4l-3.2 275.2 275.2-3.2c67.2 0 131.2-28.8 182.4-76.8 105.6-105.6 105.6-275.2 0-377.6z" />
<glyph unicode="&#xe635;" glyph-name="linkedin" d="M515.2 896c-246.4 0-448-201.6-448-448s201.6-448 448-448c246.4 0 448 201.6 448 448s-201.6 448-448 448zM400 214.4h-102.4v329.6h102.4v-329.6zM348.8 588.8c-32 0-60.8 25.6-60.8 60.8 0 32 25.6 60.8 60.8 60.8 32 0 60.8-25.6 60.8-60.8-3.2-32-28.8-60.8-60.8-60.8zM787.2 214.4h-102.4v160c0 38.4 0 89.6-54.4 89.6s-60.8-41.6-60.8-86.4v-163.2h-102.4v329.6h99.2v-44.8c12.8 25.6 48 54.4 99.2 54.4 105.6 0 124.8-67.2 124.8-156.8v-182.4z" />
<glyph unicode="&#xe636;" glyph-name="list" d="M896 115.2h-518.4c-6.4 0-16 3.2-22.4 6.4 0 0-3.2 3.2-3.2 3.2-3.2 3.2-6.4 3.2-9.6 6.4-9.6 9.6-16 22.4-16 38.4v51.2c0 28.8 22.4 51.2 51.2 51.2h518.4c12.8 0 25.6-6.4 35.2-16s16-22.4 16-38.4v-51.2c0-28.8-22.4-51.2-51.2-51.2zM947.2 419.2v54.4c0 16-6.4 28.8-16 38.4s-22.4 16-35.2 16h-518.4c-28.8 0-51.2-22.4-51.2-51.2v-51.2c0-16 6.4-28.8 16-38.4 3.2-3.2 6.4-6.4 9.6-6.4 0 0 3.2-3.2 3.2-3.2 6.4-3.2 12.8-6.4 22.4-6.4h518.4c28.8-3.2 51.2 19.2 51.2 48zM323.2 726.4v-51.2c0-16 6.4-28.8 16-38.4 3.2-3.2 6.4-6.4 9.6-6.4 0 0 3.2-3.2 3.2-3.2 6.4-3.2 12.8-6.4 22.4-6.4h518.4c28.8 0 51.2 22.4 51.2 51.2v54.4c0 16-6.4 28.8-16 38.4s-22.4 16-35.2 16h-518.4c-28.8-3.2-51.2-25.6-51.2-54.4zM265.6 419.2v54.4c0 16-6.4 28.8-16 38.4s-22.4 16-35.2 16h-80c-28.8 0-51.2-22.4-51.2-51.2v-51.2c0-16 6.4-28.8 16-38.4 3.2-3.2 6.4-6.4 9.6-6.4 0 0 3.2-3.2 3.2-3.2 6.4-3.2 12.8-6.4 22.4-6.4h80c28.8-3.2 51.2 19.2 51.2 48zM265.6 672v54.4c0 16-6.4 28.8-16 38.4-9.6 6.4-22.4 12.8-35.2 12.8h-80c-28.8 0-51.2-22.4-51.2-51.2v-51.2c0-16 6.4-28.8 16-38.4 3.2-3.2 6.4-6.4 9.6-6.4 0 0 3.2-3.2 3.2-3.2 6.4-3.2 12.8-6.4 22.4-6.4h80c28.8 0 51.2 25.6 51.2 51.2zM265.6 166.4v54.4c0 16-6.4 28.8-16 38.4s-22.4 16-35.2 16h-80c-28.8 0-51.2-22.4-51.2-51.2v-51.2c0-16 6.4-28.8 16-38.4 3.2-3.2 6.4-6.4 9.6-6.4 0 0 3.2-3.2 3.2-3.2 6.4-3.2 12.8-6.4 22.4-6.4h80c28.8-3.2 51.2 19.2 51.2 48z" />
<glyph unicode="&#xe637;" glyph-name="location" d="M515.2 896c-163.2 0-297.6-134.4-297.6-297.6 0-268.8 281.6-592 281.6-592 9.6-9.6 22.4-9.6 28.8 0 0 0 281.6 329.6 281.6 592 0 166.4-131.2 297.6-294.4 297.6zM515.2 486.4c-70.4 0-128 57.6-128 128s57.6 128 128 128c70.4 0 128-57.6 128-128s-60.8-128-128-128z" />
<glyph unicode="&#xe638;" glyph-name="lock" d="M780.8 387.2h-534.4c-12.8 0-22.4-9.6-22.4-19.2v-348.8c0-9.6 9.6-19.2 22.4-19.2h534.4c12.8 0 22.4 9.6 22.4 19.2v348.8c-3.2 9.6-9.6 19.2-22.4 19.2zM355.2 694.4c0 80 105.6 96 160 96s160-16 160-96v-246.4h96c0 0 0 243.2 0 243.2-3.2 134.4-124.8 204.8-256 204.8h-6.4c-131.2 0-252.8-70.4-252.8-201.6 0 0 0-243.2 0-243.2h96v243.2z" />
<glyph unicode="&#xe639;" glyph-name="menu" d="M988.8 742.4c0 16-6.4 28.8-16 38.4s-22.4 16-38.4 16h-784c-16 0-28.8-6.4-38.4-16s-19.2-22.4-19.2-38.4v-54.4c0-28.8 25.6-54.4 54.4-54.4h787.2c28.8 0 54.4 25.6 54.4 54.4v54.4zM934.4 534.4h-784c-16 0-28.8-6.4-38.4-16s-16-22.4-16-38.4v-57.6c0-28.8 25.6-54.4 54.4-54.4h787.2c28.8 0 54.4 25.6 54.4 54.4v54.4c0 16-6.4 28.8-16 38.4-12.8 12.8-25.6 19.2-41.6 19.2zM934.4 268.8h-784c-16 0-28.8-6.4-38.4-16s-16-22.4-16-38.4v-54.4c0-28.8 25.6-54.4 54.4-54.4h787.2c28.8 0 54.4 25.6 54.4 54.4v54.4c0 16-6.4 28.8-16 38.4-12.8 9.6-25.6 16-41.6 16z" />
<glyph unicode="&#xe63a;" glyph-name="minus" d="M512 896c-246.4 0-448-201.6-448-448s201.6-448 448-448c246.4 0 448 201.6 448 448s-201.6 448-448 448zM512 86.4c-198.4 0-361.6 163.2-361.6 361.6s163.2 361.6 361.6 361.6c198.4 0 361.6-163.2 361.6-361.6s-163.2-361.6-361.6-361.6zM758.4 499.2h-492.8c-19.2 0-35.2-16-35.2-35.2v-35.2c0-19.2 16-35.2 35.2-35.2h496c19.2 0 35.2 16 35.2 35.2v35.2c-3.2 19.2-19.2 35.2-38.4 35.2z" />
<glyph unicode="&#xe63b;" glyph-name="move" d="M560 496v131.2h83.2c19.2 0 28.8 9.6 19.2 25.6l-134.4 230.4c-3.2 3.2-6.4 6.4-9.6 9.6v0c-3.2 0-3.2 0-6.4 3.2v0c0 0 0 0 0 0s0 0 0 0 0 0 0 0 0 0 0 0c-6.4 0-12.8-3.2-16-9.6l-134.4-230.4c-9.6-16-3.2-25.6 16-25.6h83.2v-131.2h-147.2v83.2c0 19.2-9.6 28.8-25.6 19.2l-230.4-134.4c-3.2-3.2-6.4-6.4-9.6-9.6v0c0-3.2 0-3.2-3.2-6.4 0 0 0 0 0 0s0 0 0 0 0 0 0 0 0 0 0 0 0 0 0 0c0-6.4 3.2-12.8 9.6-16l230.4-134.4c16-9.6 25.6-3.2 25.6 16v83.2h147.2v-131.2h-83.2c-19.2 0-28.8-9.6-19.2-25.6l134.4-230.4c3.2-3.2 6.4-6.4 9.6-9.6v0c3.2 0 3.2 0 6.4-3.2v0c0 0 0 0 0 0s0 0 0 0 0 0 0 0 0 0 0 0c6.4 0 12.8 3.2 16 9.6l134.4 230.4c9.6 16 3.2 25.6-16 25.6h-83.2v131.2h140.8v-83.2c0-19.2 9.6-28.8 25.6-19.2l230.4 134.4c3.2 3.2 6.4 6.4 9.6 9.6v0c0 3.2 0 3.2 3.2 6.4 0 0 0 0 0 0s0 0 0 0 0 0 0 0 0 0 0 0 0 0 0 0c0 6.4-3.2 12.8-9.6 16l-230.4 134.4c-16 9.6-25.6 3.2-25.6-16v-83.2h-140.8z" />
<glyph unicode="&#xe63c;" glyph-name="music_file" d="M396.8 528c-9.6-6.4-12.8-16-12.8-22.4v-300.8c-3.2 0-3.2 0-6.4 0-38.4 0-70.4-22.4-70.4-48s32-48 70.4-48c38.4 0 70.4 22.4 70.4 48 0 0 0 256 0 256l160-22.4v-188.8c-3.2 0-3.2 0-6.4 0-38.4 0-70.4-22.4-70.4-48s32-48 70.4-48c38.4 0 70.4 22.4 70.4 48 0 0 0 320 0 320 0 16-12.8 28.8-28.8 32l-224 28.8c-6.4 3.2-16 0-22.4-6.4zM608 896h-384c-16 0-32-16-32-32v-832c0-16 16-32 32-32h588.8c16 0 19.2 16 19.2 32v640l-224 224zM768 64h-512v768h288v-192c0 0 0-32 32-32h192v-544z" />
<glyph unicode="&#xe63d;" glyph-name="not_complete" d="M512 896c-246.4 0-448-201.6-448-448s201.6-448 448-448c246.4 0 448 201.6 448 448s-198.4 448-448 448zM512 86.4c-198.4 0-358.4 163.2-358.4 361.6s163.2 361.6 361.6 361.6 361.6-163.2 361.6-361.6c-3.2-198.4-163.2-361.6-364.8-361.6z" />
<glyph unicode="&#xe63e;" glyph-name="ok_circle" d="M508.8 896c-246.4 0-448-201.6-448-448s201.6-448 448-448c246.4 0 448 201.6 448 448s-198.4 448-448 448zM508.8 86.4c-198.4 0-358.4 163.2-358.4 361.6s163.2 361.6 361.6 361.6c198.4 0 361.6-163.2 361.6-361.6-3.2-198.4-163.2-361.6-364.8-361.6zM768 608l-25.6 25.6c-16 16-38.4 16-54.4 0l-240-240-108.8 105.6c-16 16-38.4 16-54.4 0l-25.6-25.6c-16-16-16-38.4 0-54.4l163.2-163.2c16-16 38.4-16 54.4 0l294.4 294.4c9.6 19.2 9.6 44.8-3.2 57.6z" />
<glyph unicode="&#xe63f;" glyph-name="ok_sign" d="M508.8 892.8c-246.4 0-448-201.6-448-448s201.6-448 448-448 448 201.6 448 448c0 246.4-198.4 448-448 448zM758.4 518.4l-268.8-268.8c-16-16-44.8-16-60.8 0l-182.4 179.2c-16 16-16 44.8 0 60.8l28.8 28.8c16 16 44.8 16 60.8 0l121.6-118.4 268.8 268.8c16 16 44.8 16 60.8 0l28.8-28.8c16-16 16-44.8 0-60.8l-57.6-60.8z" />
<glyph unicode="&#xe640;" glyph-name="open_in_new_tab" d="M921.6 800h-336c-19.2 0-38.4-16-38.4-38.4v-105.6h-448c-19.2 3.2-35.2-12.8-35.2-32v-489.6c0-22.4 16-38.4 38.4-38.4h822.4c19.2 0 38.4 16 38.4 38.4v630.4c-3.2 19.2-19.2 35.2-41.6 35.2zM896 160h-768v435.2h486.4v140.8h281.6v-576zM678.4 540.8h48v-48c0-16 12.8-28.8 28.8-28.8s28.8 12.8 28.8 28.8v48h48c16 0 28.8 12.8 28.8 28.8s-12.8 28.8-28.8 28.8h-48v48c0 16-12.8 28.8-28.8 28.8s-28.8-12.8-28.8-28.8v-48h-48c-16 0-28.8-12.8-28.8-28.8s12.8-28.8 28.8-28.8zM473.6 704v60.8c0 19.2-16 38.4-38.4 38.4h-332.8c-22.4-3.2-38.4-19.2-38.4-38.4v-73.6c9.6 9.6 22.4 12.8 38.4 12.8h371.2z" />
<glyph unicode="&#xe641;" glyph-name="open_lock" d="M777.6 387.2h-534.4c-12.8 0-22.4-9.6-22.4-19.2v-348.8c0-9.6 9.6-19.2 22.4-19.2h534.4c12.8 0 22.4 9.6 22.4 19.2v348.8c-3.2 9.6-12.8 19.2-22.4 19.2zM352 694.4c0 80 102.4 105.6 153.6 105.6h6.4c51.2 0 156.8-25.6 156.8-108.8v-243.2h96c0 0 0 243.2 0 243.2 0 134.4-121.6 204.8-252.8 204.8h-6.4c-131.2 0-249.6-70.4-249.6-201.6v-86.4h96v86.4z" />
<glyph unicode="&#xe642;" glyph-name="paperclip" d="M521.6 0c-9.6 0-19.2 3.2-25.6 9.6-16 12.8-19.2 38.4-3.2 57.6l339.2 400c73.6 86.4 60.8 214.4-22.4 284.8-86.4 73.6-214.4 60.8-284.8-22.4l-352-409.6c-22.4-28.8-35.2-64-32-102.4s22.4-70.4 51.2-96c57.6-51.2 147.2-41.6 195.2 16l348.8 409.6c28.8 32 25.6 83.2-9.6 112-16 12.8-38.4 19.2-57.6 19.2-22.4-3.2-41.6-12.8-54.4-28.8l-220.8-262.4c-12.8-16-38.4-19.2-57.6-3.2-16 12.8-19.2 38.4-3.2 57.6l220.8 262.4c28.8 32 67.2 51.2 108.8 54.4s83.2-9.6 115.2-38.4c67.2-57.6 73.6-156.8 19.2-224l-348.8-409.6c-76.8-92.8-217.6-102.4-307.2-25.6-44.8 38.4-73.6 89.6-76.8 147.2-6.4 57.6 12.8 115.2 51.2 160l345.6 412.8c99.2 118.4 278.4 134.4 396.8 32 118.4-99.2 134.4-278.4 32-396.8l-339.2-403.2c-6.4-9.6-19.2-12.8-28.8-12.8z" />
<glyph unicode="&#xe643;" glyph-name="pause" d="M419.2 896h-163.2c-12.8 0-25.6-12.8-25.6-28.8v-838.4c0-16 12.8-28.8 25.6-28.8h160c16 0 28.8 12.8 28.8 28.8v838.4c0 16-9.6 28.8-25.6 28.8zM761.6 896h-160c-16 0-28.8-12.8-28.8-28.8v-838.4c0-16 12.8-28.8 28.8-28.8h160c16 0 28.8 12.8 28.8 28.8v838.4c0 16-12.8 28.8-28.8 28.8z" />
<glyph unicode="&#xe644;" glyph-name="pdf_file" d="M646.4 348.8h64v25.6h-64v28.8h73.6v25.6h-102.4v-134.4h28.8v54.4zM393.6 432h-54.4v-134.4h28.8v41.6h22.4c28.8 0 54.4 16 54.4 48v0c0 25.6-19.2 44.8-51.2 44.8zM416 384c0-12.8-9.6-19.2-22.4-19.2h-22.4v41.6h22.4c12.8 0 22.4-9.6 22.4-22.4v0zM521.6 432h-51.2v-134.4h51.2c41.6 0 70.4 28.8 70.4 67.2v0c0 38.4-28.8 67.2-70.4 67.2zM560 364.8c0-22.4-16-41.6-41.6-41.6h-22.4v80h22.4c25.6 3.2 41.6-16 41.6-38.4v0zM608 892.8h-384c-16 0-32-16-32-32v-832c0-16 16-32 32-32h588.8c16 0 19.2 16 19.2 32v640l-224 224zM768 60.8h-512v768h288v-192c0 0 0-32 32-32h192v-544z" />
<glyph unicode="&#xe645;" glyph-name="pencil" d="M176 259.2l147.2-153.6-3.2-3.2-198.4-99.2c-16-6.4-32-6.4-41.6 6.4-12.8 12.8-12.8 28.8-6.4 44.8l102.4 204.8zM947.2 825.6l-51.2 51.2c-28.8 28.8-73.6 25.6-102.4-3.2l-89.6-89.6 150.4-147.2 92.8 92.8c25.6 22.4 25.6 70.4 0 96zM224 307.2l147.2-153.6 435.2 435.2-150.4 147.2-432-428.8z" />
<glyph unicode="&#xe646;" glyph-name="play" d="M860.8 499.2c48-28.8 48-70.4 0-99.2l-659.2-387.2c-44.8-25.6-73.6-3.2-73.6 51.2v771.2c0 54.4 28.8 76.8 73.6 48l659.2-384z" />
<glyph unicode="&#xe647;" glyph-name="plus" d="M512 896c-246.4 0-448-201.6-448-448s201.6-448 448-448 448 201.6 448 448c0 246.4-201.6 448-448 448zM512 86.4c-198.4 0-361.6 163.2-361.6 361.6s163.2 361.6 361.6 361.6c198.4 0 361.6-163.2 361.6-361.6s-163.2-361.6-361.6-361.6zM793.6 464c0 19.2-16 35.2-35.2 35.2h-195.2v195.2c0 19.2-16 35.2-35.2 35.2h-35.2c-19.2 0-35.2-16-35.2-35.2v-195.2h-192c-19.2 0-35.2-16-35.2-35.2v-35.2c0-19.2 16-35.2 35.2-35.2h195.2v-195.2c0-19.2 16-35.2 35.2-35.2h35.2c19.2 0 35.2 16 35.2 35.2v195.2h195.2c19.2 0 35.2 16 35.2 35.2l-3.2 35.2z" />
<glyph unicode="&#xe648;" glyph-name="ppt_file" d="M608 896h-384c-16 0-32-16-32-32v-832c0-16 16-32 32-32h588.8c16 0 19.2 16 19.2 32v640l-224 224zM768 64h-512v768h288v-192c0 0 0-32 32-32h192v-544zM627.2 297.6h28.8v105.6h41.6v28.8h-112v-28.8h41.6v-105.6zM393.6 432h-54.4v-134.4h28.8v41.6h22.4c28.8 0 54.4 16 54.4 48v0c0 25.6-19.2 44.8-51.2 44.8zM416 387.2c0-12.8-9.6-19.2-22.4-19.2h-22.4v41.6h22.4c12.8-3.2 22.4-9.6 22.4-22.4v0zM521.6 432h-54.4v-134.4h28.8v41.6h22.4c28.8 0 54.4 16 54.4 48v0c3.2 25.6-19.2 44.8-51.2 44.8zM544 387.2c0-12.8-9.6-19.2-22.4-19.2h-22.4v41.6h22.4c12.8-3.2 22.4-9.6 22.4-22.4v0z" />
<glyph unicode="&#xe649;" glyph-name="print" d="M928 384h-32v198.4c0 16-12.8 25.6-25.6 25.6h-38.4v128l-160 160h-448c-19.2 0-32-16-32-32v-256h-38.4c-12.8 0-25.6-12.8-25.6-25.6v-198.4h-32c-16 0-32-16-32-32v-320c0-16 16-32 32-32h832c16 0 32 16 32 32v320c0 16-16 32-32 32zM768 384h-512v448h384v-112c0-9.6 6.4-16 16-16h112v-320z" />
<glyph unicode="&#xe64a;" glyph-name="refresh" d="M512 0c-115.2 0-227.2 48-304 134.4l-16 16-60.8-32c-9.6-6.4-22.4-6.4-35.2 0-9.6 6.4-16 19.2-16 28.8l6.4 252.8c0 12.8 6.4 22.4 16 28.8s22.4 6.4 35.2 0l217.6-128c9.6-6.4 16-16 16-28.8s-6.4-22.4-16-28.8l-67.2-41.6 35.2-28.8c3.2-3.2 6.4-6.4 9.6-6.4l6.4-3.2c9.6-6.4 22.4-12.8 35.2-19.2l9.6-3.2c12.8-6.4 22.4-9.6 35.2-12.8l3.2-3.2c12.8-3.2 25.6-6.4 41.6-9.6h6.4c19.2-3.2 32-3.2 44.8-3.2 121.6 0 233.6 73.6 281.6 185.6 6.4 16 16 28.8 28.8 35.2s32 9.6 44.8 3.2c28.8-9.6 32-32 32-38.4 0-3.2 0-6.4 0-9.6-38.4-118.4-124.8-211.2-236.8-259.2-54.4-19.2-102.4-28.8-153.6-28.8zM902.4 464c-6.4 0-12.8 0-16 3.2l-217.6 128c-9.6 6.4-16 16-16 28.8s6.4 22.4 16 28.8l67.2 38.4-35.2 28.8c-3.2 3.2-6.4 6.4-9.6 6.4l-6.4 3.2c-9.6 6.4-22.4 12.8-35.2 19.2l-9.6 3.2c-6.4 9.6-19.2 16-32 19.2l-3.2 3.2c-12.8 3.2-25.6 6.4-41.6 9.6h-9.6c-16 3.2-28.8 3.2-41.6 3.2-121.6 0-233.6-73.6-281.6-185.6-6.4-16-16-28.8-28.8-35.2-16-6.4-32-9.6-48-3.2-9.6 3.2-16 6.4-22.4 12.8-9.6 9.6-16 22.4-9.6 35.2 38.4 118.4 124.8 211.2 240 259.2 48 16 99.2 25.6 150.4 25.6 115.2 0 227.2-48 304-134.4l16-16 60.8 32c9.6 6.4 22.4 6.4 35.2 0 9.6-6.4 16-19.2 16-28.8l-6.4-252.8c0-12.8-6.4-22.4-16-28.8-6.4-3.2-12.8-3.2-19.2-3.2z" />
<glyph unicode="&#xe64b;" glyph-name="remove_circle" d="M515.2 896c-249.6 0-451.2-201.6-451.2-448s201.6-448 448-448 448 201.6 448 448c3.2 246.4-198.4 448-444.8 448zM515.2 86.4c-201.6 0-364.8 163.2-364.8 361.6s163.2 361.6 361.6 361.6c198.4 0 361.6-163.2 361.6-361.6 3.2-198.4-160-361.6-358.4-361.6zM726.4 633.6l-25.6 25.6c-12.8 12.8-35.2 12.8-48 0l-137.6-137.6-137.6 137.6c-12.8 12.8-35.2 12.8-48 0l-25.6-25.6c-12.8-12.8-12.8-35.2 0-48l137.6-137.6-137.6-137.6c-12.8-12.8-12.8-35.2 0-48l25.6-25.6c12.8-12.8 35.2-12.8 48 0l137.6 137.6 137.6-137.6c12.8-12.8 35.2-12.8 48 0l25.6 25.6c12.8 12.8 12.8 35.2 0 48l-140.8 137.6 137.6 137.6c16 16 16 35.2 3.2 48z" />
<glyph unicode="&#xe64c;" glyph-name="remove_file" d="M604.8 896h-384c-16 0-32-16-32-32v-832c0-16 16-32 32-32h588.8c16 0 19.2 16 19.2 32v640l-224 224zM764.8 64h-512v768h288v-192c0 0 0-32 32-32h192v-544zM396.8 515.2c-9.6 9.6-28.8 9.6-38.4 0l-19.2-19.2c-9.6-9.6-9.6-28.8 0-38.4l115.2-115.2-118.4-118.4c-9.6-9.6-9.6-28.8 0-38.4l19.2-19.2c9.6-9.6 28.8-9.6 38.4 0l115.2 115.2 115.2-115.2c9.6-9.6 28.8-9.6 38.4 0l19.2 19.2c9.6 9.6 9.6 28.8 0 38.4l-115.2 115.2 115.2 115.2c9.6 9.6 9.6 28.8 0 38.4l-19.2 19.2c-9.6 9.6-28.8 9.6-38.4 0l-115.2-115.2-112 118.4z" />
<glyph unicode="&#xe64d;" glyph-name="remove_sign" d="M515.2 892.8c-246.4 0-448-201.6-448-448s201.6-448 448-448 448 201.6 448 448c0 246.4-201.6 448-448 448zM748.8 291.2c16-16 16-38.4 0-54.4l-25.6-25.6c-16-16-38.4-16-54.4 0l-153.6 153.6-153.6-153.6c-16-16-38.4-16-54.4 0l-25.6 25.6c-16 16-16 38.4 0 54.4l153.6 153.6-153.6 153.6c-16 16-16 38.4 0 54.4l25.6 25.6c16 16 38.4 16 54.4 0l153.6-153.6 153.6 153.6c16 16 38.4 16 54.4 0l25.6-25.6c16-16 16-38.4 0-54.4l-153.6-153.6 153.6-153.6z" />
<glyph unicode="&#xe64e;" glyph-name="search" d="M169.6 294.4c67.2-67.2 153.6-102.4 249.6-102.4 70.4 0 140.8 22.4 198.4 60.8l233.6-233.6c12.8-12.8 28.8-19.2 44.8-19.2s35.2 6.4 44.8 19.2c12.8 12.8 19.2 28.8 19.2 44.8s-6.4 35.2-19.2 44.8l-233.6 233.6c92.8 137.6 80 326.4-41.6 448-64 70.4-153.6 105.6-246.4 105.6s-182.4-35.2-249.6-102.4c-137.6-137.6-137.6-361.6 0-499.2zM262.4 700.8c41.6 41.6 96 64 156.8 64 57.6 0 115.2-22.4 156.8-64 86.4-86.4 86.4-227.2 0-310.4-41.6-41.6-96-64-156.8-64-57.6 0-115.2 22.4-156.8 64-86.4 83.2-86.4 224 0 310.4z" />
<glyph unicode="&#xe64f;" glyph-name="share_alt" d="M956.8 448v0c0 9.6-6.4 22.4-19.2 28.8l-428.8 252.8c-32 19.2-51.2 3.2-51.2-32v-128c-6.4 3.2-444.8 128-393.6-400 0 0 211.2 230.4 393.6 153.6v-124.8c0-35.2 19.2-48 51.2-32l428.8 249.6c12.8 9.6 19.2 22.4 19.2 32v0c0 0 0 0 0 0s0 0 0 0z" />
<glyph unicode="&#xe650;" glyph-name="shopping_cart" d="M905.6 896h-124.8c-16 0-28.8-9.6-32-25.6l-35.2-163.2h-598.4c0 0-35.2 3.2-25.6-35.2l86.4-355.2c0 0 3.2-25.6 35.2-25.6h416l-25.6-137.6h-361.6c-19.2 0-32-16-32-32 0-19.2 16-32 32-32h41.6c-16-6.4-28.8-22.4-28.8-41.6 0-25.6 19.2-44.8 44.8-44.8s44.8 19.2 44.8 44.8c0 19.2-12.8 35.2-28.8 41.6h249.6c-16-6.4-28.8-22.4-28.8-41.6 0-25.6 19.2-44.8 44.8-44.8s44.8 19.2 44.8 44.8c0 19.2-12.8 35.2-28.8 41.6h35.2c16 0 28.8 9.6 32 25.6l144 716.8h96c19.2 0 32 16 32 32 3.2 16-9.6 32-28.8 32z" />
<glyph unicode="&#xe651;" glyph-name="skip_next" d="M768 892.8c-16 6.4-32 3.2-41.6-9.6l-342.4-368c0 176 0 284.8 0 284.8 0 96-128 96-128 0 0-256 0-448 0-704 0-96 128-96 128 0s0 166.4 0 284.8l339.2-368c6.4-6.4 12.8-12.8 25.6-12.8 3.2 0 16 0 22.4 3.2 16 6.4 32 19.2 32 35.2v819.2c-3.2 16-22.4 28.8-35.2 35.2z" />
<glyph unicode="&#xe652;" glyph-name="skip_start" d="M275.2 892.8c16 6.4 35.2 3.2 48-9.6l348.8-368c0 176 0 284.8 0 284.8 0 96 128 96 128 0 0-256 0-448 0-704 0-96-128-96-128 0s0 166.4 0 284.8l-352-368c-6.4-9.6-19.2-12.8-32-12.8-3.2 0-6.4 0-12.8 3.2-12.8 3.2-19.2 19.2-19.2 35.2v819.2c0 16 6.4 28.8 19.2 35.2z" />
<glyph unicode="&#xe653;" glyph-name="smartphone" d="M796.8 812.8c-3.2 6.4-51.2 83.2-281.6 83.2s-281.6-76.8-284.8-83.2c0-3.2-3.2-3.2-3.2-6.4v-742.4c0-32 16-64 67.2-64h425.6c60.8 0 73.6 32 73.6 64v739.2c3.2 3.2 3.2 6.4 3.2 9.6zM518.4 38.4c-28.8 0-51.2 22.4-51.2 51.2s22.4 51.2 51.2 51.2c28.8 0 51.2-22.4 51.2-51.2s-22.4-51.2-51.2-51.2zM739.2 195.2c0-9.6-6.4-16-16-16h-419.2c-9.6 0-16 6.4-16 16v566.4c0 9.6 6.4 16 16 16h422.4c9.6 0 16-6.4 16-16v-566.4z" />
<glyph unicode="&#xe654;" glyph-name="sort" d="M908.8 384h-121.6v262.4c3.2 25.6-19.2 57.6-44.8 57.6h-48c-25.6 0-48-32-48-57.6v-262.4h-121.6c-25.6 0-38.4-16-25.6-38.4l192-329.6c6.4-9.6 16-16 22.4-16v0c0 0 0 0 0 0s0 0 0 0v0c9.6 0 16 6.4 22.4 16l192 329.6c19.2 22.4 9.6 38.4-19.2 38.4zM518.4 550.4l-192 329.6c-6.4 9.6-16 16-22.4 16v0c0 0 0 0 0 0s0 0 0 0v0c-9.6 0-19.2-6.4-25.6-16l-192-329.6c-12.8-22.4-3.2-38.4 25.6-38.4h121.6v-262.4c-3.2-25.6 19.2-57.6 44.8-57.6h48c25.6 0 48 32 48 57.6v262.4h121.6c25.6 0 35.2 16 22.4 38.4z" />
<glyph unicode="&#xe655;" glyph-name="star_empty" d="M976 556.8c-3.2 12.8-16 19.2-28.8 19.2h-310.4l-96 297.6c-3.2 12.8-12.8 22.4-28.8 22.4-12.8 0-25.6-9.6-28.8-22.4l-96-297.6h-310.4c-12.8 0-25.6-6.4-28.8-19.2s0-25.6 9.6-32l252.8-185.6-96-300.8c-3.2-12.8 0-25.6 9.6-35.2 9.6-3.2 12.8-3.2 19.2-3.2s12.8 0 19.2 3.2l249.6 182.4 249.6-182.4c9.6-6.4 25.6-6.4 35.2 0s16 22.4 9.6 35.2l-96 297.6 252.8 185.6c12.8 9.6 19.2 22.4 12.8 35.2zM627.2 374.4l48-188.8-163.2 102.4c0 0-160-105.6-163.2-105.6-6.4 3.2 48 192 48 192l-150.4 124.8h201.6l64 192 80-192h185.6l-150.4-124.8z" />
<glyph unicode="&#xe656;" glyph-name="star" d="M976 560c-6.4 12.8-16 16-28.8 16h-297.6l-92.8 288c-3.2 12.8-16 22.4-28.8 22.4s-22.4-9.6-28.8-22.4l-92.8-288h-297.6c-12.8 0-22.4-3.2-28.8-16-3.2-12.8 0-22.4 9.6-28.8l243.2-179.2-92.8-288c-3.2-12.8 0-25.6 9.6-32 6.4-3.2 9.6-6.4 16-6.4s12.8 3.2 16 6.4l243.2 176 243.2-176c9.6-6.4 22.4-6.4 35.2 0 9.6 6.4 16 19.2 9.6 32l-92.8 288 243.2 179.2c9.6 6.4 16 19.2 12.8 28.8z" />
<glyph unicode="&#xe657;" glyph-name="stats" d="M278.4 540.8h-38.4c-41.6 0-73.6-41.6-73.6-57.6v-483.2h185.6v486.4c0 12.8-32 54.4-73.6 54.4zM787.2 896h-41.6c-38.4 0-73.6-41.6-73.6-57.6v-838.4h188.8v838.4c0 16-32 57.6-73.6 57.6zM534.4 668.8h-41.6c-41.6 0-73.6-41.6-73.6-57.6v-611.2h188.8v611.2c0 16-32 57.6-73.6 57.6z" />
<glyph unicode="&#xe658;" glyph-name="stop" d="M960 32c0-16-16-32-32-32h-832c-16 0-32 16-32 32v832c0 16 16 32 32 32h832c16 0 32-16 32-32v-832z" />
<glyph unicode="&#xe659;" glyph-name="thumbs_down" d="M259.2 726.4v-387.2c0-12.8-9.6-22.4-22.4-22.4h-150.4c-12.8 0-22.4 9.6-22.4 22.4v387.2c0 12.8 9.6 22.4 22.4 22.4h150.4c12.8-3.2 22.4-9.6 22.4-22.4zM505.6 800h208c6.4 0 12.8-3.2 16-6.4 6.4-9.6 188.8-204.8 224-291.2 28.8-70.4-22.4-124.8-51.2-144-3.2-3.2-6.4-3.2-9.6-3.2h-256c3.2-51.2 6.4-166.4-60.8-236.8-3.2-3.2-22.4-22.4-51.2-22.4-12.8 0-35.2 6.4-51.2 28.8-3.2 3.2-3.2 6.4-3.2 9.6s-9.6 176-112 224c-6.4 3.2-12.8 9.6-12.8 19.2v320c0 6.4 3.2 12.8 6.4 16l153.6 86.4zM521.6 736l-115.2-60.8v-272c89.6-57.6 115.2-182.4 121.6-240 0 0 0 0 0 0 48 51.2 44.8 153.6 41.6 185.6l-6.4 67.2h313.6c12.8 9.6 28.8 32 19.2 57.6-22.4 54.4-131.2 179.2-201.6 259.2h-172.8z" />
<glyph unicode="&#xe65a;" glyph-name="thumbs_up" d="M236.8 150.4h-150.4c-12.8 0-22.4 9.6-22.4 22.4v384c0 12.8 9.6 22.4 22.4 22.4h150.4c12.8 0 22.4-9.6 22.4-22.4v-387.2c0-12.8-9.6-19.2-22.4-19.2zM348.8 179.2c-3.2 3.2-6.4 9.6-6.4 16v320c0 9.6 3.2 16 12.8 19.2 99.2 48 112 220.8 112 224s0 6.4 3.2 9.6c16 25.6 35.2 32 48 32 28.8 0 48-19.2 51.2-22.4 67.2-70.4 67.2-185.6 60.8-236.8h256c3.2 0 6.4 0 9.6-3.2 32-19.2 80-73.6 51.2-144-35.2-86.4-217.6-281.6-224-291.2-3.2-3.2-9.6-6.4-16-6.4h-208l-150.4 83.2zM694.4 160c70.4 76.8 179.2 204.8 201.6 259.2 12.8 28.8-6.4 48-19.2 57.6h-313.6l6.4 67.2c3.2 28.8 6.4 134.4-41.6 185.6 0 0 0 0 0 0-6.4-57.6-32-179.2-121.6-240v-272l115.2-60.8h172.8z" />
<glyph unicode="&#xe65b;" glyph-name="transfer" d="M963.2 624v0c0 6.4-6.4 16-16 22.4l-323.2 188.8c-22.4 12.8-38.4 3.2-38.4-22.4v-115.2h-198.4v-137.6h198.4v-121.6c0-25.6 16-38.4 38.4-22.4l323.2 188.8c9.6 3.2 16 9.6 16 19.2v0c0 0 0 0 0 0s0 0 0 0zM121.6 556.8v137.6c-25.6 0-54.4-22.4-54.4-48v-44.8c0-22.4 28.8-44.8 54.4-44.8zM332.8 694.4h-156.8v-137.6h156.8v137.6zM694.4 166.4h156.8v137.6h-156.8v-137.6zM905.6 304v-137.6c25.6 0 54.4 19.2 54.4 44.8v44.8c3.2 25.6-28.8 48-54.4 48zM441.6 419.2c0 25.6-16 38.4-38.4 22.4l-320-185.6c-9.6-6.4-16-12.8-16-22.4v0c0 0 0 0 0 0s0 0 0 0v0c0-6.4 6.4-16 16-22.4l323.2-188.8c22.4-12.8 38.4-3.2 38.4 22.4v121.6h198.4v137.6h-198.4v115.2z" />
<glyph unicode="&#xe65c;" glyph-name="trashcan" d="M835.2 835.2c-12.8 9.6-28.8 16-48 16h-179.2c-3.2 9.6-9.6 19.2-16 25.6-9.6 12.8-22.4 19.2-35.2 19.2h-83.2c-25.6 0-48-19.2-54.4-41.6h-182.4c-38.4 0-67.2-51.2-67.2-80v-6.4h688v3.2c0 16-9.6 54.4-22.4 64zM790.4 697.6h-563.2c-19.2 0-32-16-32-32v-633.6c0-19.2 16-32 32-32h563.2c19.2 0 32 16 32 32v630.4c3.2 19.2-12.8 35.2-32 35.2zM361.6 112c0-25.6-22.4-44.8-51.2-44.8s-51.2 19.2-51.2 44.8v480c0 25.6 22.4 44.8 51.2 44.8s51.2-19.2 51.2-44.8v-480zM560 112c0-25.6-22.4-44.8-51.2-44.8s-51.2 19.2-51.2 44.8v480c0 25.6 22.4 44.8 51.2 44.8s51.2-19.2 51.2-44.8v-480zM758.4 112c0-25.6-22.4-44.8-51.2-44.8s-51.2 19.2-51.2 44.8v480c0 25.6 22.4 44.8 51.2 44.8s51.2-19.2 51.2-44.8v-480z" />
<glyph unicode="&#xe65d;" glyph-name="twitter" d="M512 896c-246.4 0-448-198.4-448-448 0-246.4 201.6-448 448-448s448 201.6 448 448c0 249.6-201.6 448-448 448zM729.6 560c0-6.4 0-9.6 0-16 0-147.2-112-316.8-316.8-316.8-64 0-121.6 19.2-172.8 51.2 9.6 0 19.2-3.2 25.6-3.2 51.2 0 99.2 19.2 137.6 48-48 0-89.6 32-105.6 76.8 6.4 0 12.8-3.2 22.4-3.2s19.2 0 28.8 3.2c-51.2 9.6-89.6 54.4-89.6 108.8v0c16-9.6 32-12.8 51.2-12.8-28.8 19.2-51.2 54.4-51.2 92.8 0 19.2 6.4 38.4 16 57.6 54.4-67.2 137.6-112 230.4-115.2-3.2 9.6-3.2 16-3.2 25.6 0 60.8 51.2 112 112 112 32 0 60.8-12.8 80-35.2 25.6 6.4 48 12.8 70.4 25.6-9.6-25.6-25.6-48-48-60.8 22.4 3.2 44.8 9.6 64 19.2-12.8-22.4-32-41.6-51.2-57.6z" />
<glyph unicode="&#xe65e;" glyph-name="upload" d="M531.2 684.8c-9.6 16-22.4 19.2-32 3.2l-147.2-246.4c-9.6-19.2 0-25.6 19.2-25.6h89.6v-188.8c0-19.2 16-35.2 35.2-35.2h35.2c19.2 0 35.2 16 35.2 35.2v188.8h89.6c19.2 0 28.8 6.4 19.2 25.6l-144 243.2zM512 896c-246.4 0-448-201.6-448-448s201.6-448 448-448c246.4 0 448 201.6 448 448s-201.6 448-448 448zM512 86.4c-198.4 0-361.6 163.2-361.6 361.6 0 201.6 163.2 361.6 361.6 361.6s361.6-163.2 361.6-361.6c0-198.4-163.2-361.6-361.6-361.6z" />
<glyph unicode="&#xe65f;" glyph-name="user" d="M774.4 633.6c0-144-118.4-262.4-262.4-262.4s-262.4 118.4-262.4 262.4c0 144 118.4 262.4 262.4 262.4 147.2 0 262.4-115.2 262.4-262.4zM729.6 361.6c-60.8-48-137.6-73.6-214.4-73.6-80 0-156.8 28.8-217.6 76.8-160-60.8-233.6-268.8-233.6-364.8h896c0 96-70.4 300.8-230.4 361.6z" />
<glyph unicode="&#xe660;" glyph-name="video_file" d="M480 313.6v-73.6l115.2 76.8-115.2 76.8v-80zM320 320c0-105.6 86.4-192 192-192s192 86.4 192 192-86.4 192-192 192-192-86.4-192-192zM640 320c0-70.4-57.6-128-128-128s-128 57.6-128 128 57.6 128 128 128 128-57.6 128-128zM608 896h-384c-16 0-32-16-32-32v-832c0-16 16-32 32-32h588.8c16 0 19.2 16 19.2 32v640l-224 224zM768 64h-512v768h288v-192c0 0 0-32 32-32h192v-544z" />
<glyph unicode="&#xe661;" glyph-name="volume_down" d="M755.2 172.8c-12.8 9.6-12.8 28.8-3.2 41.6 92.8 144 92.8 326.4 0 470.4-9.6 12.8-9.6 32 3.2 41.6 6.4 6.4 6.4 6.4 12.8 9.6 12.8 9.6 32 3.2 44.8-12.8 108.8-166.4 108.8-380.8 0-547.2-9.6-16-32-22.4-44.8-12.8-6.4 6.4-6.4 6.4-12.8 9.6zM534.4 883.2l-240-249.6h-156.8c-6.4 0-9.6-6.4-9.6-12.8v-345.6c0-6.4 3.2-12.8 9.6-12.8h153.6l243.2-249.6c38.4-28.8 70.4-6.4 70.4 51.2v771.2c0 54.4-32 76.8-70.4 48z" />
<glyph unicode="&#xe662;" glyph-name="volume_off" d="M867.2 460.8l73.6 73.6c16 16 16 44.8 0 60.8s-44.8 16-60.8 0l-73.6-73.6-73.6 73.6c-16 16-44.8 16-60.8 0s-16-44.8 0-60.8l73.6-73.6-73.6-73.6c-16-16-16-44.8 0-60.8 9.6-9.6 19.2-12.8 28.8-12.8s22.4 3.2 28.8 12.8l73.6 73.6 73.6-73.6c9.6-9.6 19.2-12.8 28.8-12.8s22.4 3.2 28.8 12.8c16 16 16 44.8 0 60.8l-67.2 73.6zM483.2 883.2l-240-249.6h-156.8c-6.4 0-9.6-6.4-9.6-12.8v-345.6c0-6.4 3.2-12.8 9.6-12.8h153.6l243.2-249.6c38.4-28.8 70.4-6.4 70.4 51.2v771.2c0 54.4-32 76.8-70.4 48z" />
<glyph unicode="&#xe663;" glyph-name="volume_up" d="M790.4 57.6c-12.8 12.8-16 41.6-3.2 60.8 105.6 201.6 105.6 464 0 665.6-9.6 19.2-9.6 48 3.2 60.8 6.4 6.4 6.4 6.4 12.8 12.8 12.8 12.8 38.4 6.4 51.2-16 124.8-236.8 124.8-540.8 0-777.6-12.8-22.4-35.2-32-51.2-16-3.2 3.2-6.4 3.2-12.8 9.6zM486.4 883.2l-240-249.6h-156.8c-6.4 0-9.6-6.4-9.6-12.8v-345.6c0-6.4 3.2-12.8 9.6-12.8h153.6l243.2-249.6c38.4-28.8 70.4-6.4 70.4 51.2v771.2c0 54.4-32 73.6-70.4 48zM672 108.8c12.8-12.8 32-6.4 41.6 16 105.6 198.4 105.6 454.4 0 652.8-9.6 19.2-28.8 25.6-41.6 16-3.2-3.2-6.4-6.4-9.6-9.6-12.8-12.8-12.8-35.2-3.2-51.2 89.6-169.6 89.6-390.4 0-560-9.6-16-6.4-38.4 3.2-51.2 3.2-6.4 6.4-6.4 9.6-12.8z" />
<glyph unicode="&#xe664;" glyph-name="warning_file" d="M560 531.2h-80v-275.2h80v275.2zM521.6 230.4c-32 0-54.4-25.6-54.4-54.4s25.6-54.4 54.4-54.4c28.8 0 54.4 25.6 54.4 54.4s-25.6 54.4-54.4 54.4zM608 896h-384c-16 0-32-16-32-32v-832c0-16 16-32 32-32h588.8c16 0 19.2 16 19.2 32v640l-224 224zM768 64h-512v768h288v-192c0 0 0-32 32-32h192v-544z" />
<glyph unicode="&#xe665;" glyph-name="warning_sign" d="M960 182.4l-358.4 656c-19.2 35.2-51.2 57.6-86.4 57.6s-67.2-22.4-89.6-57.6l-352-656c-22.4-41.6-25.6-92.8-3.2-131.2 19.2-32 51.2-51.2 86.4-51.2h707.2c38.4 0 73.6 22.4 96 57.6 22.4 38.4 22.4 86.4 0 124.8zM873.6 105.6c-3.2-9.6-9.6-9.6-9.6-9.6h-710.4c-3.2 0-9.6 22.4 0 38.4l352 656c6.4 3.2 6.4 6.4 9.6 6.4 0 0 3.2-3.2 6.4-6.4l355.2-656c3.2-9.6 3.2-22.4-3.2-28.8zM515.2 249.6c-32 0-54.4-25.6-54.4-54.4s25.6-54.4 54.4-54.4c32 0 54.4 25.6 54.4 54.4s-22.4 54.4-54.4 54.4zM569.6 624h-112v-316.8h112v316.8z" />
<glyph unicode="&#xe666;" glyph-name="word_file" d="M608 892.8h-384c-16 0-32-16-32-32v-832c0-16 16-32 32-32h588.8c16 0 19.2 16 19.2 32v640l-224 224zM768 60.8h-512v768h288v-192c0 0 0-32 32-32h192v-544zM368 422.4h-48v-128h51.2c41.6 0 67.2 28.8 67.2 64v0c0 38.4-28.8 64-70.4 64zM406.4 358.4c0-22.4-16-38.4-38.4-38.4h-22.4v76.8h22.4c22.4 0 38.4-16 38.4-38.4v0zM524.8 425.6c-38.4 0-67.2-28.8-67.2-67.2v0c0-35.2 28.8-67.2 67.2-67.2s67.2 28.8 67.2 67.2v0c0 38.4-28.8 67.2-67.2 67.2zM563.2 358.4c0-22.4-16-38.4-38.4-38.4s-38.4 19.2-38.4 41.6v0c0 22.4 16 38.4 38.4 38.4s38.4-19.2 38.4-41.6v0zM675.2 294.4c25.6 0 38.4 9.6 51.2 22.4l-19.2 19.2c-9.6-9.6-19.2-16-32-16-22.4 0-38.4 19.2-38.4 41.6v0c0 22.4 16 38.4 38.4 38.4 12.8 0 22.4-6.4 32-16l19.2 19.2c-12.8 12.8-25.6 19.2-51.2 19.2-38.4 0-67.2-28.8-67.2-67.2v0c3.2-32 32-60.8 67.2-60.8z" />
<glyph unicode="&#xe667;" glyph-name="youtube" d="M514.208 896.928c-247.424 0-448-200.576-448-448s200.576-448 448-448 448 200.576 448 448-200.576 448-448 448zM825.984 425.376c0-50.464-6.24-100.928-6.24-100.928s-6.080-42.976-24.8-61.888c-23.712-24.832-50.304-24.96-62.464-26.4-87.264-6.304-218.304-6.496-218.304-6.496s-162.112 1.472-212 6.272c-13.888 2.592-45.024 1.824-68.768 26.656-18.688 18.912-24.768 61.888-24.768 61.888s-6.24 50.464-6.24 100.928v47.296c0 50.464 6.24 100.928 6.24 100.928s6.080 42.976 24.768 61.888c23.712 24.832 50.304 24.96 62.464 26.4 87.264 6.304 218.144 6.304 218.144 6.304h0.256c0 0 130.88 0 218.144-6.304 12.192-1.44 38.784-1.568 62.464-26.4 18.688-18.912 24.8-61.888 24.8-61.888s6.24-50.464 6.24-100.928v-47.328zM449.824 368.032l168.512 87.296-168.512 87.936v-175.232z" />
<glyph unicode="&#xe668;" glyph-name="zoom_in" d="M854.4 793.6c-67.2 67.2-153.6 102.4-249.6 102.4-92.8 0-182.4-35.2-249.6-102.4-121.6-121.6-134.4-310.4-41.6-448l-233.6-233.6c-12.8-12.8-19.2-28.8-19.2-44.8s6.4-35.2 19.2-44.8c12.8-16 28.8-22.4 48-22.4s35.2 6.4 44.8 19.2l233.6 233.6c57.6-38.4 128-60.8 198.4-60.8 92.8 0 182.4 35.2 249.6 102.4 137.6 137.6 137.6 361.6 0 499.2zM761.6 387.2c-41.6-41.6-96-64-156.8-64-57.6 0-115.2 22.4-156.8 64-86.4 86.4-86.4 227.2 0 310.4 41.6 41.6 96 64 156.8 64 57.6 0 115.2-22.4 156.8-64 86.4-83.2 86.4-224 0-310.4zM713.6 585.6h-67.2v67.2c0 22.4-19.2 41.6-41.6 41.6s-41.6-19.2-41.6-41.6v-67.2h-67.2c-22.4 0-41.6-19.2-41.6-41.6s19.2-41.6 41.6-41.6h67.2v-67.2c0-22.4 19.2-41.6 41.6-41.6s41.6 19.2 41.6 41.6v67.2h67.2c22.4 0 41.6 19.2 41.6 41.6s-16 41.6-41.6 41.6z" />
<glyph unicode="&#xe669;" glyph-name="zoom_out" d="M857.6 793.6c-67.2 67.2-153.6 102.4-249.6 102.4-92.8 0-182.4-35.2-249.6-102.4-121.6-121.6-134.4-310.4-41.6-448l-233.6-233.6c-12.8-12.8-19.2-28.8-19.2-48 0-16 6.4-35.2 19.2-44.8 12.8-12.8 28.8-19.2 48-19.2 16 0 35.2 6.4 44.8 19.2l233.6 233.6c57.6-38.4 128-60.8 198.4-60.8 92.8 0 182.4 35.2 249.6 102.4 137.6 137.6 137.6 361.6 0 499.2zM764.8 387.2c-41.6-41.6-96-64-156.8-64-57.6 0-115.2 22.4-156.8 64-86.4 86.4-86.4 227.2 0 310.4 41.6 41.6 96 64 156.8 64 57.6 0 115.2-22.4 156.8-64 86.4-83.2 86.4-224 0-310.4zM713.6 585.6h-217.6c-22.4 0-41.6-19.2-41.6-41.6s19.2-41.6 41.6-41.6h217.6c22.4 0 41.6 19.2 41.6 41.6s-19.2 41.6-41.6 41.6z" />
</font>
</defs>
</svg>
